<svg height="60pt" viewBox="0 -16 453.9988 453" width="100pt" xmlns="http://www.w3.org/2000/svg"><path d="m417.878906 216.890625-.269531 10.71875-1.699219-.039063h-67.390625l-2.359375.058594-.351562-13.890625h-.089844v20.140625c.074219 8.027344-6.285156 14.640625-14.308594 14.878906-3.871094.042969-7.59375-1.460937-10.34375-4.183593-2.75-2.71875-4.296875-6.425781-4.296875-10.292969v-80.671875c-.777343-7.671875 1.730469-15.3125 6.898438-21.03125 5.171875-5.71875 12.519531-8.980469 20.230469-8.980469h14.671874l23.25 22.621094 24.097657-22.621094h13.8125c7.707031 0 15.058593 3.261719 20.226562 8.980469 5.171875 5.71875 7.679688 13.359375 6.902344 21.03125v80.660156c0 8.003907-6.488281 14.488281-14.492187 14.488281-8 0-14.488282-6.484374-14.488282-14.488281zm0 0" fill="#00efd1"/><path d="m381.890625 398.371094c-.109375 8.480468-6.933594 15.34375-15.414063 15.5-8.484374.152344-15.554687-6.457032-15.96875-14.933594l-4.347656-171.308594 2.359375-.058594h67.390625l1.699219.039063-4.351563 171.328125c-.304687 8.554688-7.40625 15.285156-15.964843 15.128906-8.554688-.15625-15.410157-7.140625-15.402344-15.695312zm0 0" fill="#00acea"/><path d="m407.140625 62.078125v10.992187c0 14.359376-11.640625 26-26 26h-.492187c-14.359376 0-26-11.640624-26-26v-10.992187c0-14.359375 11.640624-26 26-26h.492187c14.359375 0 26 11.640625 26 26zm0 0" fill="#00efd1"/><path d="m330.648438 33.5v10.980469c0 14.359375-11.640626 26-26 26h-.488282c-14.359375 0-26-11.640625-26-26v-10.980469c0-14.359375 11.640625-26 26-26h.488282c14.359374 0 26 11.640625 26 26zm0 0" fill="#fedb41"/><path d="m263.058594 217.289062-.257813 10.320313-1.710937-.039063h-67.378906l-2.371094.058594-.351563-13.890625h-.078125v20.140625c.074219 8.027344-6.285156 14.640625-14.3125 14.878906-3.867187.042969-7.589844-1.460937-10.339844-4.183593-2.753906-2.71875-4.300781-6.425781-4.296874-10.292969v-80.671875c-.777344-7.671875 1.726562-15.3125 6.898437-21.03125 5.167969-5.71875 12.519531-8.980469 20.230469-8.980469h14.660156l23.25 22.621094 24.097656-22.621094h13.820313c7.710937.003906 15.058593 3.265625 20.226562 8.984375s7.671875 13.359375 6.894531 21.027344v80.660156c0 8.003907-6.488281 14.488281-14.488281 14.488281-8.003906 0-14.492187-6.484374-14.492187-14.488281zm0 0" fill="#00acea"/><path d="m227.070312 398.371094c.003907 8.554687-6.847656 15.539062-15.40625 15.695312-8.558593.15625-15.660156-6.574218-15.964843-15.128906l-4.359375-171.308594 2.371094-.058594h67.378906l1.710937.039063-4.351562 171.328125c-.414063 8.476562-7.484375 15.085938-15.964844 14.933594-8.484375-.15625-15.308594-7.019532-15.414063-15.5zm0 0" fill="#00efd1"/><path d="m252.328125 62.078125v10.992187c0 14.359376-11.640625 26-26 26h-.488281c-14.359375 0-26-11.640624-26-26v-10.992187c0-14.359375 11.640625-26 26-26h.488281c14.359375 0 26 11.640625 26 26zm0 0" fill="#00efd1"/><path d="m175.839844 33.5v10.980469c0 14.359375-11.640625 26-26 26h-.492188c-14.359375 0-26-11.640625-26-26v-10.980469c0-14.359375 11.640625-26 26-26h.492188c14.359375 0 26 11.640625 26 26zm0 0" fill="#fedb41"/><path d="m36.089844 213.738281v20.140625c.074218 8.027344-6.285156 14.640625-14.3125 14.878906-3.867188.042969-7.589844-1.460937-10.339844-4.183593-2.75-2.71875-4.300781-6.425781-4.296875-10.292969v-80.671875c-.777344-7.671875 1.726563-15.3125 6.898437-21.03125 5.171876-5.71875 12.519532-8.980469 20.230469-8.980469h14.667969l23.25 22.621094 24.101562-22.621094h13.808594c7.710938 0 15.0625 3.261719 20.230469 8.980469 5.171875 5.71875 7.679687 13.359375 6.902344 21.03125v80.660156c0 8.003907-6.488281 14.488281-14.492188 14.488281-8 0-14.488281-6.484374-14.488281-14.488281v-16.988281l-.261719 10.328125-1.710937-.039063h-67.386719l-2.363281.058594-.347656-13.890625zm0 0" fill="#00efd1"/><path d="m72.257812 398.371094c-.105468 8.480468-6.929687 15.34375-15.414062 15.5-8.480469.152344-15.550781-6.457032-15.964844-14.933594l-4.351562-171.308594 2.363281-.058594h67.386719l1.710937.039063-4.359375 171.328125c-.304687 8.554688-7.410156 15.285156-15.964844 15.128906-8.558593-.15625-15.410156-7.140625-15.40625-15.695312zm0 0" fill="#00acea"/><path d="m97.507812 62.078125v10.992187c0 14.359376-11.640624 26-26 26h-.488281c-14.359375 0-26-11.640624-26-26v-10.992187c0-14.359375 11.640625-26 26-26h.488281c14.359376 0 26 11.640625 26 26zm0 0" fill="#00efd1"/><g fill="#083863"><path d="m71.019531 106.070312h.488281c18.21875-.023437 32.980469-14.785156 33-33v-10.992187c-.019531-18.214844-14.78125-32.976563-33-33h-.488281c-18.21875.023437-32.980469 14.785156-33 33v10.992187c.019531 18.214844 14.78125 32.976563 33 33zm-19-43.992187c.011719-10.488281 8.511719-18.988281 19-19h.488281c10.488282.011719 18.988282 8.511719 19 19v10.992187c-.011718 10.488282-8.511718 18.988282-19 19h-.488281c-10.488281-.011718-18.988281-8.511718-19-19zm0 0"/><path d="m110.097656 116.597656h-13.808594c-1.78125.003906-3.492187.683594-4.792968 1.902344l-19.222656 18.042969-18.453126-17.964844c-1.308593-1.269531-3.058593-1.980469-4.882812-1.980469h-14.667969c-9.625-.003906-18.804687 4.042969-25.296875 11.144532-6.496094 7.105468-9.699218 16.613281-8.832031 26.199218v80.339844c-.003906 5.699219 2.265625 11.167969 6.296875 15.199219 4.035156 4.027343 9.507812 6.289062 15.207031 6.28125h.222657c2.871093-.039063 5.707031-.664063 8.328124-1.84375l3.6875 145.289062c.324219 8.933594 5.867188 16.839844 14.152344 20.195313 8.285156 3.355468 17.769532 1.527344 24.21875-4.660156 6.457032 6.199218 15.960938 8.019531 24.253906 4.644531 8.296876-3.375 13.828126-11.316407 14.117188-20.265625l3.691406-145.082032c6.636719 2.828126 14.25 2.140626 20.273438-1.839843 6.019531-3.976563 9.640625-10.714844 9.636718-17.929688v-80.324219c.867188-9.585937-2.339843-19.09375-8.832031-26.199218-6.492187-7.101563-15.671875-11.148438-25.296875-11.148438zm-22.148437 290.460938c-2.304688.007812-4.519531-.90625-6.152344-2.539063-1.628906-1.628906-2.542969-3.84375-2.539063-6.148437v-145.523438c0-3.863281-3.132812-7-7-7-3.863281 0-7 3.136719-7 7v145.523438c0 3.488281-2.089843 6.636718-5.300781 8-3.214843 1.359375-6.929687.667968-9.4375-1.757813-1.605469-1.535156-2.550781-3.632812-2.644531-5.851562l-4.164062-164.191407h57.097656l-4.171875 164.121094c-.152344 4.679688-4.003907 8.390625-8.6875 8.367188zm42.316406-254.15625c-.023437.234375-.035156.472656-.035156.707031v80.660156c0 4.136719-3.355469 7.492188-7.492188 7.492188s-7.488281-3.355469-7.488281-7.492188v-16.914062l.085938-3.4375c.007812-.425781-.019532-.847657-.085938-1.265625v-32.371094c0-3.867188-3.136719-7-7-7-3.867188 0-7 3.132812-7 7v36.910156l-.085938 3.378906h-57.808593l-.179688-7.007812c-.007812-.304688-.039062-.605469-.085937-.90625v-32.375c0-3.867188-3.136719-7-7-7-3.867188 0-7 3.132812-7 7v53.597656c.089844 4.195313-3.1875 7.695313-7.378906 7.878906-2.015626.015626-3.953126-.773437-5.382813-2.1875-1.40625-1.402343-2.195313-3.304687-2.1875-5.289062v-80.671875c0-.234375-.011719-.472656-.039063-.707031-.574218-5.699219 1.289063-11.378906 5.132813-15.628906s9.304687-6.671876 15.035156-6.671876h11.828125l21.214844 20.636719c.03125.03125.066406.054688.097656.082031.207032.195313.425782.378907.65625.550782.019532.015625.039063.03125.0625.046875.25.179687.515625.339843.789063.484375.054687.027344.113281.058594.171875.085937.25.125.507812.234375.773437.332031l.078125.027344c.285156.097656.578125.175782.875.230469.066406.015625.132813.023437.199219.039063.265625.042968.53125.074218.800781.089843.035156 0 .074219.007813.109375.007813.300781.011718.601563.003906.902344-.027344.066406-.003906.132813-.015625.199219-.023438.296875-.03125.589844-.085937.878906-.15625h.023438c.308593-.082031.613281-.183593.910156-.304687.023437-.011719.050781-.015625.074218-.027344.027344-.011719.054688-.027343.078126-.039062.574218-.25 1.109374-.578125 1.59375-.96875.066406-.054688.128906-.109375.191406-.164063.0625-.054687.136718-.109375.199218-.171875l22.082032-20.726562h11.039062c5.730469 0 11.195313 2.425781 15.039063 6.675781 3.839843 4.25 5.703125 9.929688 5.128906 15.632812zm0 0"/><path d="m380.648438 106.070312h.492187c18.214844-.023437 32.976563-14.785156 33-33v-10.992187c-.023437-18.214844-14.785156-32.976563-33-33h-.492187c-18.214844.023437-32.976563 14.785156-33 33v10.992187c.023437 18.214844 14.785156 32.976563 33 33zm-19-43.992187c.011718-10.488281 8.511718-18.988281 19-19h.492187c10.488281.011719 18.988281 8.511719 19 19v10.992187c-.011719 10.488282-8.511719 18.988282-19 19h-.492187c-10.488282-.011718-18.988282-8.511718-19-19zm0 0"/><path d="m419.730469 116.597656h-13.8125c-1.78125.003906-3.492188.683594-4.789063 1.902344l-19.222656 18.042969-18.457031-17.964844c-1.308594-1.269531-3.058594-1.980469-4.882813-1.980469h-14.667968c-9.625-.003906-18.804688 4.042969-25.296876 11.148438-6.492187 7.101562-9.699218 16.609375-8.832031 26.195312v80.339844c0 5.699219 2.265625 11.167969 6.300781 15.199219 4.035157 4.027343 9.503907 6.289062 15.207032 6.28125h.21875c2.875-.039063 5.710937-.664063 8.332031-1.84375l3.6875 145.273437c.316406 8.9375 5.855469 16.851563 14.144531 20.210938 8.285156 3.359375 17.773438 1.53125 24.222656-4.660156 6.460938 6.203124 15.964844 8.019531 24.257813 4.644531 8.296875-3.375 13.824219-11.316407 14.117187-20.265625l3.679688-145.085938c6.640625 2.835938 14.257812 2.144532 20.277344-1.832031 6.023437-3.976563 9.644531-10.714844 9.644531-17.933594v-80.324219c.867187-9.585937-2.339844-19.09375-8.832031-26.199218-6.492188-7.101563-15.675782-11.148438-25.296875-11.148438zm-22.152344 290.460938c-2.304687.003906-4.519531-.910156-6.148437-2.539063-1.632813-1.628906-2.546876-3.84375-2.539063-6.148437v-145.523438c0-3.863281-3.136719-7-7-7-3.867187 0-7 3.136719-7 7v145.523438c-.003906 3.484375-2.089844 6.632812-5.300781 7.996094-3.207032 1.363281-6.921875.675781-9.433594-1.746094-1.609375-1.535156-2.558594-3.636719-2.648438-5.859375l-4.167968-164.191407h57.085937l-4.164062 164.121094c-.152344 4.679688-4 8.386719-8.683594 8.367188zm42.320313-254.15625c-.023438.234375-.035157.472656-.035157.707031v80.660156c0 4.136719-3.355469 7.488281-7.492187 7.488281-4.132813 0-7.488282-3.351562-7.488282-7.488281v-17.289062l.078126-3.058594c.007812-.398437-.019532-.796875-.078126-1.191406v-32.449219c0-3.867188-3.132812-7-7-7-3.867187 0-7 3.132812-7 7v36.53125l-.09375 3.757812h-57.800781l-.179687-7.007812c-.007813-.300781-.039063-.601562-.085938-.898438v-32.382812c0-3.867188-3.132812-7-7-7-3.867187 0-7 3.132812-7 7v53.597656c.089844 4.195313-3.1875 7.695313-7.378906 7.878906-2 .027344-3.925781-.75-5.347656-2.15625-1.425782-1.40625-2.222656-3.320312-2.222656-5.320312v-80.671875c0-.234375-.011719-.472656-.035157-.707031-.578125-5.699219 1.289063-11.378906 5.128907-15.628906 3.84375-4.25 9.304687-6.671876 15.035156-6.671876h11.828125l21.210937 20.636719c.03125.03125.066406.054688.101563.082031.207031.199219.425781.382813.65625.550782.019531.015625.039062.03125.058593.046875.253907.179687.515626.339843.789063.484375.058594.027344.113281.058594.171875.085937.25.125.511719.234375.773438.328125.027343.011719.054687.023438.078124.03125.289063.09375.578126.171875.875.230469.066407.015625.132813.023437.199219.035156.265625.046875.53125.078125.800781.09375.039063 0 .074219.007813.113282.007813.300781.007812.601562 0 .898437-.027344.070313-.007812.136719-.015625.199219-.023438.296875-.035156.59375-.085937.882812-.160156h.023438c.308594-.078125.613281-.183594.90625-.304687.023438-.011719.050781-.015625.078125-.027344.023437-.007813.050781-.027344.078125-.039063.570312-.25 1.105469-.574218 1.59375-.96875.0625-.050781.125-.105468.1875-.160156.066406-.054687.140625-.113281.203125-.175781l22.078125-20.722656h11.039062c5.730469-.003907 11.195313 2.417969 15.039063 6.667969s5.707031 9.929687 5.132813 15.628906zm0 0"/><path d="m225.839844 106.070312h.488281c18.21875-.023437 32.980469-14.785156 33-33v-10.992187c-.019531-18.214844-14.78125-32.976563-33-33h-.488281c-18.21875.023437-32.980469 14.785156-33 33v10.992187c.019531 18.214844 14.78125 32.976563 33 33zm-19-43.992187c.011718-10.488281 8.511718-18.988281 19-19h.488281c10.488281.011719 18.988281 8.511719 19 19v10.992187c-.011719 10.488282-8.511719 18.988282-19 19h-.488281c-10.488282-.011718-18.988282-8.511718-19-19zm0 0"/><path d="m264.917969 116.597656h-13.820313c-1.777344.003906-3.492187.683594-4.789062 1.902344l-19.222656 18.042969-18.457032-17.964844c-1.304687-1.269531-3.058594-1.980469-4.882812-1.980469h-14.65625c-9.625-.003906-18.804688 4.042969-25.300782 11.148438-6.492187 7.101562-9.695312 16.609375-8.832031 26.195312v80.339844c0 5.699219 2.265625 11.167969 6.300781 15.199219 4.035157 4.027343 9.503907 6.289062 15.207032 6.28125h.222656c2.871094-.039063 5.703125-.664063 8.320312-1.839844l3.691407 145.265625c.316406 8.9375 5.855469 16.855469 14.140625 20.210938 8.289062 3.359374 17.777344 1.535156 24.226562-4.660157 6.457032 6.203125 15.964844 8.023438 24.257813 4.648438 8.296875-3.375 13.828125-11.316407 14.117187-20.269531l3.683594-145.082032c6.636719 2.832032 14.253906 2.144532 20.273438-1.835937 6.019531-3.976563 9.640624-10.714844 9.636718-17.929688v-80.324219c.867188-9.585937-2.335937-19.089843-8.828125-26.195312-6.488281-7.101562-15.667969-11.148438-25.289062-11.152344zm-22.160157 290.460938c-4.796874 0-8.6875-3.890625-8.6875-8.6875v-145.523438c0-3.863281-3.136718-7-7-7-3.867187 0-7 3.136719-7 7v145.523438c-.003906 3.484375-2.089843 6.632812-5.296874 7.996094-3.210938 1.363281-6.925782.675781-9.433594-1.746094-1.609375-1.535156-2.554688-3.636719-2.644532-5.859375l-4.175781-164.191407h57.101563l-4.167969 164.109376c-.15625 4.683593-4.007813 8.394531-8.695313 8.378906zm42.316407-254.15625c-.023438.234375-.035157.472656-.035157.707031v80.660156c0 4.136719-3.351562 7.492188-7.488281 7.492188s-7.492187-3.355469-7.492187-7.492188v-16.90625l.085937-3.445312c.011719-.421875-.019531-.847657-.085937-1.265625v-32.371094c0-3.867188-3.132813-7-7-7-3.867188 0-7 3.132812-7 7v36.917969l-.085938 3.371093h-57.808594l-.175781-7.007812c-.011719-.28125-.035156-.566406-.078125-.847656v-32.433594c0-3.867188-3.136718-7-7-7-3.867187 0-7 3.132812-7 7v53.597656c.089844 4.195313-3.1875 7.695313-7.378906 7.878906-2.015625.019532-3.953125-.769531-5.382812-2.1875-1.40625-1.402343-2.195313-3.304687-2.1875-5.292968v-80.667969c0-.238281-.015626-.472656-.039063-.707031-.574219-5.703125 1.289063-11.378906 5.132813-15.628906s9.304687-6.671876 15.035156-6.671876h11.816406l21.210938 20.636719c.03125.03125.066406.050781.101562.082031.207031.199219.429688.382813.660156.554688.019532.011719.035156.027344.054688.042969.253906.179687.519531.339843.792968.484375.054688.03125.109376.058594.167969.085937.25.125.511719.238281.78125.332031.023438.007813.046875.019532.070313.027344.289062.097656.582031.171875.875.230469.070312.015625.136718.023437.203125.039063.261719.042968.53125.074218.796875.089843.039062 0 .074218.007813.113281.007813.300781.011718.601563.003906.898437-.027344.070313-.003906.136719-.015625.203126-.023438.292968-.03125.585937-.085937.875-.15625.011718 0 .019531-.003906.027343-.003906.308594-.082031.609375-.183594.90625-.308594.023438-.007812.050781-.015624.078125-.023437.023438-.011719.050782-.03125.078125-.042969.570313-.25 1.105469-.574218 1.589844-.96875.066406-.050781.128906-.105468.191406-.160156s.140625-.113281.207031-.175781l22.078126-20.722657h11.050781c5.726562 0 11.1875 2.425782 15.03125 6.675782 3.839843 4.253906 5.703125 9.929687 5.125 15.628906zm0 0"/><path d="m182.839844 44.480469v-10.980469c-.023438-18.21875-14.785156-32.980469-33-33h-.492188c-18.214844.019531-32.976562 14.78125-33 33v10.980469c.023438 18.214843 14.785156 32.976562 33 33h.492188c18.214844-.023438 32.976562-14.785157 33-33zm-14 0c-.011719 10.488281-8.511719 18.988281-19 19h-.492188c-10.488281-.011719-18.988281-8.511719-19-19v-10.980469c.011719-10.488281 8.511719-18.988281 19-19h.492188c10.488281.011719 18.988281 8.511719 19 19zm0 0"/><path d="m337.648438 44.480469v-10.980469c-.019532-18.21875-14.78125-32.980469-33-33h-.488282c-18.21875.019531-32.980468 14.78125-33 33v10.980469c.019532 18.214843 14.78125 32.976562 33 33h.488282c18.21875-.023438 32.980468-14.785157 33-33zm-14 0c-.011719 10.488281-8.511719 18.988281-19 19h-.488282c-10.488281-.011719-18.988281-8.511719-19-19v-10.980469c.011719-10.488281 8.511719-18.988281 19-19h.488282c10.488281.011719 18.988281 8.511719 19 19zm0 0"/></g></svg>